<?xml version="1.0" standalone="no"?>
<!DOCTYPE svg PUBLIC "-//W3C//DTD SVG 20010904//EN"
 "http://www.w3.org/TR/2001/REC-SVG-20010904/DTD/svg10.dtd">
<svg version="1.0" xmlns="http://www.w3.org/2000/svg"
 width="241.000000pt" height="241.000000pt" viewBox="0 0 241.000000 241.000000"
 preserveAspectRatio="xMidYMid meet">
<metadata>
Created by potrace 1.14, written by Peter Selinger 2001-2017
</metadata>
<g transform="translate(0.000000,241.000000) scale(0.100000,-0.100000)"
fill="#000000" stroke="none">
<path d="M1164 2329 c-38 -40 -136 -100 -307 -188 -207 -106 -312 -178 -419
-286 -112 -113 -190 -252 -233 -418 -31 -119 -37 -168 -40 -304 -3 -196 27
-348 102 -503 25 -52 48 -97 52 -100 3 -3 19 -24 35 -48 46 -68 153 -169 240
-227 116 -77 299 -146 431 -162 75 -9 275 -10 335 -1 391 58 685 291 809 642
30 85 34 100 51 221 10 69 7 292 -5 370 -42 264 -159 466 -370 637 -56 45
-190 125 -315 188 -188 94 -236 121 -289 167 l-48 42 -29 -30z"/>
</g>
</svg>
